# xmcd CD database file
#
# Track frame offsets:
#	150
#	15464
#	33421
#	47435
#	65139
#	81386
#	95078
#	116005
#	132398
#	151169
#	173203
#
# Disc length: 2410 seconds
#
# Revision: 0
# Processed by: cddbd v1.5.1PL2 Copyright (c) Steve Scherf et al.
# Submitted via: CDex 1.51
#
DISCID=8f09680b
DTITLE=レムスイム - アンダースロウ・ブルース
DYEAR=2006
DGENRE=Pop
TTITLE0=I Hate Dogs
TTITLE1=OLマフィア
TTITLE2=バーチャル博士くん
TTITLE3=東京タワー
TTITLE4=北はどっちだ！
TTITLE5=スマトラマンデリン
TTITLE6=体内時計
TTITLE7=星降る夜
TTITLE8=お気に召すまま
TTITLE9=花と君
TTITLE10=アンダースロウ・ブルース
EXTD=YEAR: 2006.05/05
EXTT0=
EXTT1=
EXTT2=
EXTT3=
EXTT4=
EXTT5=
EXTT6=
EXTT7=
EXTT8=
EXTT9=
EXTT10=
PLAYORDER=
